<?xml version="1.0" encoding="utf-8"?>
<!-- Generator: Adobe Illustrator 14.0.0, SVG Export Plug-In  -->
<!DOCTYPE svg PUBLIC "-//W3C//DTD SVG 1.1//EN" "http://www.w3.org/Graphics/SVG/1.1/DTD/svg11.dtd" [
	<!ENTITY ns_flows "http://ns.adobe.com/Flows/1.0/">
]>
<svg version="1.1"
	 xmlns="http://www.w3.org/2000/svg" xmlns:xlink="http://www.w3.org/1999/xlink" xmlns:a="http://ns.adobe.com/AdobeSVGViewerExtensions/3.0/"
	 x="0px" y="0px" width="129px" height="50px" viewBox="-9.952 -7.7 129 50" enable-background="new -9.952 -7.7 129 50"
	 xml:space="preserve">
<defs>
</defs>
<path fill="#333333" d="M48.624,26.375c-0.561,0.825-1.75,2.046-4.225,2.046c-2.376,0-3.564-1.089-4.125-1.914
	c-0.825-1.188-0.825-2.641-0.825-3.993V11.259c0-0.528,0.033-1.057,0.066-1.584c0.066-0.892,0.231-3.829,3.202-4.786
	c0.66-0.231,1.221-0.297,1.947-0.297c1.716,0,2.64,0.528,3.234,1.022c0.495,0.396,0.858,0.892,1.089,1.453
	c0.462,1.056,0.495,2.112,0.495,3.234v2.97h-3.103V9.675c0-0.495,0.165-2.41-1.881-2.41c-0.66,0-0.99,0.198-1.254,0.396
	c-0.759,0.66-0.693,1.65-0.693,2.541v12.872c0,0.264,0,0.528,0.033,0.792c0.033,0.627,0.132,1.882,1.848,1.882
	c0.198,0,0.726,0.032,1.188-0.33c0.792-0.562,0.759-1.552,0.759-2.41v-4.521h3.103v4.357C49.481,24.131,49.382,25.253,48.624,26.375
	z"/>
<path fill="#333333" d="M61.199,25.253c-0.857,3.069-3.795,3.234-4.719,3.234c-0.826,0-3.4-0.165-4.357-2.739
	c-0.264-0.66-0.396-1.32-0.396-2.74V4.823h3.003v18.021c0,1.319-0.033,3.102,1.849,3.102c0.198,0,0.759,0,1.188-0.362
	c0.66-0.562,0.693-1.387,0.693-2.938V4.823h3.035V22.48C61.496,22.679,61.496,24.163,61.199,25.253z"/>
<path fill="#333333" d="M72.99,24.691c-0.033,0.264,0,1.849-0.99,2.706c-0.924,0.76-2.244,0.727-3.333,0.727H63.98V4.823h5.445
	c0.957,0,1.98,0,2.74,0.692c0.824,0.792,0.824,1.882,0.857,3.961c0,0.396,0.033,0.792,0.033,1.188c0,0.727-0.033,1.453-0.066,2.179
	c0,0.132,0.033,1.155-0.297,1.815c-0.23,0.495-0.759,0.825-1.254,0.957c-0.33,0.099-0.957,0.198-0.957,0.198
	c0.825,0.065,1.782,0.297,2.211,1.056c0.363,0.66,0.297,1.552,0.33,3.169c0,0.594,0.033,1.188,0.033,1.815
	C73.057,22.811,73.057,23.734,72.99,24.691z M69.922,8.882c-0.033-0.627-0.133-0.924-0.33-1.089
	c-0.231-0.198-0.562-0.198-1.123-0.198h-1.518v6.997h1.188c0.957,0,1.65-0.033,1.783-1.188c0.065-0.463,0.099-1.222,0.099-2.344
	C70.021,10.334,69.987,9.608,69.922,8.882z M70.021,18.85c-0.033-0.429-0.066-1.122-0.396-1.452
	c-0.264-0.231-0.659-0.264-0.957-0.264h-1.716v8.119h1.584c0.693,0,1.32,0.065,1.452-0.792c0.033-0.363,0.099-1.915,0.099-3.268
	C70.086,20.401,70.053,19.642,70.021,18.85z"/>
<path fill="#333333" d="M82.276,28.124l-0.595-4.291h-3.498l-0.527,4.291h-3.004l3.301-23.301h3.729l3.598,23.301H82.276z
	 M79.801,8.882l-1.287,12.113h2.772L79.801,8.882z"/>
<path fill="#333333" d="M93.215,28.19c-0.396,0.165-1.022,0.362-2.045,0.362c-1.882,0-2.905-0.792-3.4-1.386
	c-0.957-1.089-1.023-2.344-1.023-3.696v-3.862h2.839v4.258c0,1.122,0.165,1.617,0.66,1.947c0.132,0.1,0.429,0.297,0.925,0.297
	c1.518-0.032,1.484-1.683,1.484-2.739c0-1.683-0.264-2.607-1.122-4.06c-0.858-1.518-1.914-2.871-2.806-4.356
	c-0.494-0.792-1.781-2.772-1.781-5.479c0-2.574,1.121-3.928,2.078-4.489c0.496-0.297,1.32-0.627,2.641-0.627
	c0.627,0,2.971-0.033,3.697,2.244c0.131,0.43,0.23,0.825,0.23,1.75v4.125h-2.805V8.354C92.754,8.09,92.853,6.77,91.565,6.77
	c-1.485,0-1.519,1.287-1.519,2.377c0,1.947,0.528,3.036,1.551,4.653c0.43,0.693,0.892,1.354,1.354,2.047
	c0.363,0.495,0.693,0.989,1.023,1.518c1.617,2.542,1.815,4.291,1.815,5.644C95.79,23.503,95.822,27.002,93.215,28.19z"/>
<path fill="#333333" d="M98.006,28.124V4.823h7.689v2.904h-4.587v6.831h4.093v2.905h-4.061v7.723h4.555v2.938H98.006z"/>
<path fill-rule="evenodd" clip-rule="evenodd" fill="#333333" d="M17.12,0l5.644,5.606c-5.787,0.392-10.358,5.18-10.358,11.027
	c0,6.084,4.951,11.021,11.074,11.052L17.12,34L0,16.998L17.12,0z M18.806,16.634c0-2.596,2.119-4.699,4.731-4.699
	c2.614,0,4.731,2.104,4.731,4.699c0,2.593-2.118,4.696-4.731,4.696C20.924,21.33,18.806,19.227,18.806,16.634z"/>
</svg>
