<?xml version="1.0" encoding="utf-8"?>
<!-- Generator: Adobe Illustrator 14.0.0, SVG Export Plug-In . SVG Version: 6.00 Build 43363)  -->
<!DOCTYPE svg PUBLIC "-//W3C//DTD SVG 1.1//EN" "http://www.w3.org/Graphics/SVG/1.1/DTD/svg11.dtd">
<svg version="1.1" id="Layer_1" xmlns="http://www.w3.org/2000/svg" xmlns:xlink="http://www.w3.org/1999/xlink" x="0px" y="0px"
	 width="34px" height="34px" viewBox="11.346 11.346 34 34" enable-background="new 11.346 11.346 34 34" xml:space="preserve">
<linearGradient id="SVGID_1_" gradientUnits="userSpaceOnUse" x1="28.3459" y1="11.3464" x2="28.3459" y2="45.3469">
	<stop  offset="0" style="stop-color:#FFFFFF"/>
	<stop  offset="1" style="stop-color:#CCCCCC"/>
</linearGradient>
<path fill="url(#SVGID_1_)" d="M28.346,11.346c-9.39,0-17.001,7.613-17.001,17c0,9.389,7.611,17,17.001,17
	c9.389,0,17.001-7.61,17.001-17C45.347,18.959,37.734,11.346,28.346,11.346z M32.845,28.276h-2.943c0,4.704,0,10.498,0,10.498
	h-4.364c0,0,0-5.734,0-10.498h-2.075V24.57h2.075v-2.402c0-1.719,0.816-4.402,4.404-4.402l3.23,0.013v3.6c0,0-1.964,0-2.346,0
	c-0.383,0-0.925,0.191-0.925,1.009v2.184h3.326L32.845,28.276z"/>
</svg>
