<?xml version="1.0" encoding="UTF-8" standalone="no"?>
<!-- Generator: Adobe Illustrator 16.0.0, SVG Export Plug-In . SVG Version: 6.00 Build 0)  -->

<svg
   xmlns:dc="http://purl.org/dc/elements/1.1/"
   xmlns:cc="http://creativecommons.org/ns#"
   xmlns:rdf="http://www.w3.org/1999/02/22-rdf-syntax-ns#"
   xmlns:svg="http://www.w3.org/2000/svg"
   xmlns="http://www.w3.org/2000/svg"
   xmlns:sodipodi="http://sodipodi.sourceforge.net/DTD/sodipodi-0.dtd"
   xmlns:inkscape="http://www.inkscape.org/namespaces/inkscape"
   version="1.1"
   id="Globe"
   x="0px"
   y="0px"
   width="109.201px"
   height="109.199px"
   viewBox="199.799 201.5 109.201 109.199"
   style="enable-background:new 199.799 201.5 109.201 109.199;"
   xml:space="preserve"
   inkscape:version="0.48.2 r9819"
   sodipodi:docname="globe2.svg"><metadata
   id="metadata11"><rdf:RDF><cc:Work
       rdf:about=""><dc:format>image/svg+xml</dc:format><dc:type
         rdf:resource="http://purl.org/dc/dcmitype/StillImage" /><dc:title /></cc:Work></rdf:RDF></metadata><defs
   id="defs9" /><sodipodi:namedview
   pagecolor="#ffffff"
   bordercolor="#666666"
   borderopacity="1"
   objecttolerance="10"
   gridtolerance="10"
   guidetolerance="10"
   inkscape:pageopacity="0"
   inkscape:pageshadow="2"
   inkscape:window-width="837"
   inkscape:window-height="480"
   id="namedview7"
   showgrid="false"
   inkscape:zoom="3.056387"
   inkscape:cx="30.070375"
   inkscape:cy="41.241103"
   inkscape:window-x="2340"
   inkscape:window-y="185"
   inkscape:window-maximized="0"
   inkscape:current-layer="g3" />
<g
   id="g3"
   style="fill:#808080">
	<path
   style="fill:#555;fill-opacity:1"
   d="M253.299,246.799C253.4,246.799,253.4,246.799,253.299,246.799c0-0.1,0-0.199,0-0.299   C253.299,246.6,253.299,246.7,253.299,246.799z M274.299,269.7L274.299,269.7L274.299,269.7L274.299,269.7z M274.799,269.799   c-0.1,0-0.399,0-0.5-0.1C274.2,270,274.299,270.1,274.799,269.799z M254.4,201.5c-30.101,0-54.601,24.399-54.601,54.6   c0,30.199,24.4,54.6,54.601,54.6c30.101,0,54.601-24.4,54.601-54.6C309,225.9,284.6,201.5,254.4,201.5z M289.299,222.799   C287.4,222.9,286.1,222.9,284.6,223.9c-0.6,0.399-1,1-1.801,1.2c-0.699,0.199-1.399,0-2.1,0.3c-2.5,0.8-2.1,6.2-5.4,5.399   c-1.5-0.399-2.6-2.199-3.399-3.399c-0.7-1-1.899-1.899-1.101-3.2c-0.399,0.1-0.799,0-1.199,0.1c0.5-1.199,2.3-1,2.6-1.6   c0.7-1.5-2-1.6-2.8-1.8c0.899-1,1.399,0.3,2.3,0.101c0.9-0.201-0.5-1.4-1-1.5c-0.199,0-3.3,0.899-1.5-0.801   c-2.199-1.4-4.4-2.8-6.699-4.3c-0.4,1.601,3,2.5,4,3c-0.201,0.7-1.201,1.601-2,1.3c-0.701-0.3-0.4-1.5-1.5-1.4   c-0.801,1.801,1.699,1.301,1.899,2.4c0.3,1.301-0.899,0.7-1.399,0.7c-0.101,0-1-0.899-1-0.2C262.4,221,263.9,220.7,264,221.5   c-1.601,0.1-2.5-0.5-3.801-1.4c-1.6-1-2.4-0.9-4.3-0.9c0.601-0.199,1.399-0.4,1.899-0.8c0.301-0.2,1.301-1.2,1.4-1.5   c0.301-1,0-0.899-1-1.601c-0.8-0.6-1.8-1.6-2.9-1.799c-3.699-0.701-1.1,3.299-3.899,3.899h0.101h-0.201l0,0   c-0.6,0-1.899-0.2-2.299,0.2c-0.301,0.199-0.301,1.199-0.601,1.5c-0.601,0.6-1.5,0.699-2.101,1.199   c-0.699,0.4-2.199,1.601-2.6,2.301c-1.5,2.8,3.301,3.699,5.1,4.5c0.801,0.4,3.201,0.9,3.701,1.5c0.6,0.8-0.5,1.6,0.699,2.199   c0.4,0.201,1.2,0.201,1.6-0.199c0.601-0.6-0.199-0.801-0.399-1.5c-0.3-1.4,0.2-0.801,0.899-1.4c1.4-1.1,1.101-1.1,0.601-2.8   c-0.2-0.8-1.101-3-0.3-3.601c1-0.799,3.199,0.4,4,0.5c0.9,0.101,1.4,1.4,2,1.9c0.3,0.301,0.9,1.1,1.5,1c0.9-0.1,0.5-0.9,1.1-1.3   c1.4-1,1.801,0.399,2.4,1.7c0.5,1.3,1.1,1.8,2,2.6c0.4,0.4,2.4,1.7,2.199,2.6c-0.1,0.601-2.399,1.4-3,1.601   c-2.199,0.7-6.299-1.101-6.699,2.3c0.8-0.3,3.3-2.3,4-1.4c0.3,0.4-0.301,1-0.1,1.5c0.399,1.301,1.399,0.801,2.399,0.601   c-0.101,0-0.101,0.101-0.2,0.101c1.4-0.701,1.301-0.601,1.9-1.701c0.199-0.399,0.5-1.299,0.8-1.6c1-0.9,1.2-0.3,1.8,0.4   c0.2,0.199,1.7,2.4,1.2,2.3c-1.8-0.399-3.5-0.3-5,0.7c-0.899,0.6-1.7,1.3-2.7,1.699c-0.199,0.101-2.1,0.301-1.9,0   c0.301-0.5,1.4-0.799,1.801-1.199c-1.2-0.5-2.2,0.6-3.1,1.199c-1,0.5-1.201,1.301-2.101,2.101c-0.399,0.3-1.101,0.399-1.399,0.8   c-0.4,0.4-0.4,1.1-0.701,1.5c-0.199,0.301-0.799,0.1-1.1,0.5c-0.3,0.6,0.301,1.1,0.2,1.5c-0.2,0.7-1.601,1.4-2.2,1.9   c0.1-0.1,0.1-0.1,0.2-0.2c-0.5,0.601-1.2,1-1.601,1.601c0.201,0.899,0.801,3.1,0.601,3.6c-0.601,1.699-1.601-0.9-2.101-1.6   c-1.5-2.301-4.5-0.801-6.6-0.601c-2.6,0.2-5.199,3.7-3.6,6.399c0.8,1.301,2.1,1.801,3.6,1.5c1.301-0.299,1.7-2.1,3-2.199   c2.301-0.1,0.1,2.3-0.1,3.1c-0.2,0.801,0.3,0.9,1.1,1.1c0.6,0.101,1.5-0.299,2,0.101c0.301,0.2,0.301,1.399,0.801,1   c-0.9,0.7-0.701,2.5,0.199,3.101c1,0.699,2.2,0.1,3.301,0.299c2,0.5,1-0.199,2.799-1.199c1.201-0.7,1.4,0.1,2.201,0.1   c0.6,0,0.899-0.8,1.799-0.6c0.801,0.199,1.101,0.8,2,0.9c0.4,0.1,0.701-0.101,1.101-0.101c1.7,0.2,2.899,1.2,4.2,2.2   c1.1,0.8,1.8,0.6,3.1,1c0.9,0.3,2.6,1.6,2.5,2.8c0,0.2-0.8,1.3-1,1.7c0.2,0.199,1.9-0.2,2.4-0.2c-0.2,0.2-1.301,1-1.301,0.601   c0,0.199,0.801,0.699,1,0.799c0.601-1.899,1.5-0.699,2.701-0.199c1,0.4,2.199,0.4,3.199,0.699c0.9,0.201,2.801,0.801,3.5,1.5   c0.801,0.9,0.2,2.301-0.3,3.201c-0.8,1.1-1.899,1.6-2.399,2.899c-0.4,1.101-0.101,2.101-0.301,3.3c-0.3,1.6-0.5,1-1.5,2   c-0.9,0.801,0,0.7-1.199,1.2c-1.201,0.5-2.201,0.399-3,1.7c0-0.1,0.1-0.2,0.1-0.2c-0.301,0.5-0.5,1.5-0.7,1.8   c-0.399,0.801-1,1.301-1.601,2c-0.199,0.301-2.5,3.4-2.699,3.1c-0.2-0.299-2,0.301-2.1-0.1c0.1,0.4,0,0.301,0.399,0.5   c-0.399,2.6-1.5,3-4,3c0.2,1.2-0.899,1-1.399,1.7c-0.301,0.399-0.5,1.5-0.701,2c-0.1,0.3-1.1,1.601-1.1,1.8   c0,0.2,0.301,0.6,0.6,0.9c-1.799,0.4-3.6,0.6-5.5,0.699c0.301-0.399,0.4-0.799-0.699-0.899c0.3-0.8,1-1.3,1.3-2   c0.101-0.399,0-0.5,0.101-0.899c0.399-1.301,0.199-0.801,0-1.801c-0.5-2.3,0.199-2.9,0.799-5c0.601-2.1,0.601-4.9,1-7.199   c0.201-1.101,0.5-3.4,0.101-4.4c-0.399-1.2-2.3-2.1-3.2-2.9c-1.199-1.1-1.9-2.3-2.8-3.699c-0.5-0.701-1-1.4-1.399-2.201   c-0.801-1.6,0-0.699,0.1-1.6s-0.1-1.8,0.3-2.8c0.399-1.101,1.399-1.8,1.8-2.899c0.301-1,0.1-2.201-0.9-2.5   c-0.6-0.201-1.199,0.199-1.699,0.1c-0.801-0.1-1.7-0.7-2.301-1.2c-0.899-0.7-1.199-1.7-2.1-2.3c-0.8-0.5-1.3-0.2-2.1-0.4   c-0.9-0.3-1.4-1.3-2.1-1.6c-1-0.5-1.601,0.199-2.701,0.1c-0.899-0.1-2.299-1.1-3.199-1.5c-1.801-0.8-2.801-1.699-3.5-3.4   c-0.6-1.5-1.5-2.199-2.5-3.5c-1-1.299-1.4-2.399-3-2.699c-0.2,0,0.4,1.4,0.5,1.5c0.6,1.1,1.4,2,2.1,3c1,1.5,0.6,1.699-0.5,0.3   c-1.199-1.601-2.6-3.2-3.6-4.899c-0.4-0.601-0.301-1.101-1-1.701c-0.6-0.6-1.4-0.899-2.1-1.399c-2.301-2-2.701-4.7-2.4-7.601   c0.1-0.899,0.4-1.699,0.3-2.6c-0.101-0.8-0.601-1.4-1.101-1.9c-0.199-0.299-0.6-1-0.699-1c-0.5-0.899-0.9-1.699-1.7-2.399   c-0.5-0.399-1.7-1.3-2.8-2.101c5.1-6.399,11.8-11.399,19.5-14.6c0.1,0.4,0.199,0.801,0.5,1.1c0.6,0.9,1.199,0.9,2.5,1.101   c-0.1,1.399-1.801,1.399-2.9,1.3c-1.4-0.199-2.8-0.6-3.9,0.5c0.601,0.4,2.4,1.9,2.201,0.301c1.299-0.101,2.5-0.101,3.799,0.1   c0.5,0.1,2.201,0.6,2.701,0.4c0.199-0.101,0.399-1.101,0.6-1.4c-0.4,0-0.7-0.2-1.1-0.1c0.799-1.101,1.699-0.201,2.699,0.299   c-1.199,0.701-0.5,2.4,0.7,1c0.899-1.1-0.2-2-1.399-2.6c1.199-1.5,2-1.6,3.1,0.1c0.199-1.1,1-0.6,1.9-0.6v-0.3   c-0.4,0-0.801-0.2-1.201-0.2c0.9-1.4,0.301-1.8,1.601-2.199c1-0.4,4,0,4.3-1c-2.1,0.399-4.5,0.5-6.4,1.399   c-0.799,0.399-1.799,1.7-2.5,0.8c-0.799-0.8,0.601-2.199,1.301-2.6h-0.2c3.2-0.7,6.601-1.1,10.101-1.1c2.199,0,4.399,0.199,6.6,0.5   c-0.7,0.399-0.2,0.699-0.7,1.1c-1,0.8-2.899,1.4-4.101,1.9c1.601,0,5.4,1.5,6.101-0.701c-0.5-0.1-1-0.199-1.5-0.199   c0.899-0.6,2-1.1,3.101-1.5c10,2,18.799,7,25.6,14.1C289.4,222.799,289.299,222.799,289.299,222.799z M298.1,242   c0.1-0.201,0.3-0.301,0.4-0.4c0.199-0.301,0.1-0.6,0.399-0.801c0.2-0.299,0.601-0.399,0.8-0.6c0.1-0.1,0.2-0.199,0.2-0.3   c0.8,2.2,1.399,4.601,1.899,7c0,0,0,0,0,0.101c-0.1,0.1-0.899,0.199-1,0.199c-0.6,0-1-0.3-1.399-0.699   c-0.399-0.4-0.899-0.801-1.2-1.301c-0.3-0.5-0.1-1-0.1-1.5C298.2,243.1,297.9,242.4,298.1,242z M298.799,267   c-0.899-0.801-2-1.9-2.699-3c-0.7-1.101-0.301-2.301-0.2-3.601c0-1.101-0.5-2.601,0-3.601c0.2-0.399,0.7-0.6,0.899-1   c0.4-0.799,0.301-1.299,0.9-2c0.6-0.699,1.301-0.899,1.9-1.399c0.699-0.601,0.6-1,1-1.8c0.3-0.5,1-1.5,1.699-1.9   c0.4,2.4,0.601,4.801,0.601,7.301c0,4.299-0.601,8.5-1.601,12.399C300.2,268.299,299.5,267.7,298.799,267z"
   id="path5" />
</g>
</svg>