<?xml version="1.0" encoding="utf-8"?>
<!-- Generator: Adobe Illustrator 14.0.0, SVG Export Plug-In . SVG Version: 6.00 Build 43363)  -->
<!DOCTYPE svg PUBLIC "-//W3C//DTD SVG 1.1//EN" "http://www.w3.org/Graphics/SVG/1.1/DTD/svg11.dtd">
<svg version="1.1" id="Layer_1" xmlns="http://www.w3.org/2000/svg" xmlns:xlink="http://www.w3.org/1999/xlink" x="0px" y="0px"
	 width="34px" height="34px" viewBox="11.346 11.346 34 34" enable-background="new 11.346 11.346 34 34" xml:space="preserve">
<g>
	<defs>
		<path id="SVGID_1_" d="M25.181,27.089c0.434,0,0.8-0.171,1.083-0.495c0.446-0.505,0.641-1.336,0.524-2.219
			c-0.208-1.579-1.333-2.89-2.511-2.925h-0.046c-0.417,0-0.788,0.17-1.071,0.494c-0.439,0.501-0.623,1.292-0.508,2.172
			c0.207,1.576,1.357,2.938,2.51,2.973H25.181z"/>
	</defs>
	<clipPath id="SVGID_2_">
		<use xlink:href="#SVGID_1_"  overflow="visible"/>
	</clipPath>
	<linearGradient id="SVGID_3_" gradientUnits="userSpaceOnUse" x1="28.3459" y1="11.3464" x2="28.3459" y2="45.3469">
		<stop  offset="0" style="stop-color:#FFFFFF"/>
		<stop  offset="1" style="stop-color:#CCCCCC"/>
	</linearGradient>
	<rect x="11.346" y="11.346" clip-path="url(#SVGID_2_)" fill="url(#SVGID_3_)" width="34" height="34"/>
</g>
<g>
	<defs>
		<path id="SVGID_4_" d="M26.466,31.844c-0.116-0.078-0.236-0.161-0.359-0.246c-0.363-0.111-0.749-0.17-1.142-0.175h-0.05
			c-1.812,0-3.402,1.099-3.402,2.352c0,1.36,1.361,2.429,3.101,2.429c2.293,0,3.456-0.79,3.456-2.351
			c0-0.148-0.018-0.301-0.053-0.452C27.86,32.794,27.304,32.415,26.466,31.844z"/>
	</defs>
	<clipPath id="SVGID_5_">
		<use xlink:href="#SVGID_4_"  overflow="visible"/>
	</clipPath>
	<linearGradient id="SVGID_6_" gradientUnits="userSpaceOnUse" x1="28.3459" y1="11.3464" x2="28.3459" y2="45.3469">
		<stop  offset="0" style="stop-color:#FFFFFF"/>
		<stop  offset="1" style="stop-color:#CCCCCC"/>
	</linearGradient>
	<rect x="11.346" y="11.346" clip-path="url(#SVGID_5_)" fill="url(#SVGID_6_)" width="34" height="34"/>
</g>
<g>
	<defs>
		<path id="SVGID_7_" d="M28.347,11.346c-9.39,0-17,7.61-17,16.999c0,9.39,7.611,17.001,17,17.001c9.388,0,17-7.611,17-17.001
			C45.346,18.957,37.734,11.346,28.347,11.346z M26.8,37.596c-0.678,0.195-1.409,0.295-2.177,0.295
			c-0.855,0-1.678-0.099-2.444-0.292c-1.484-0.374-2.582-1.084-3.092-1.999c-0.221-0.396-0.333-0.817-0.333-1.254
			c0-0.45,0.108-0.905,0.319-1.358c0.814-1.732,2.957-2.896,5.331-2.896c0.024,0,0.047,0,0.069,0
			c-0.193-0.34-0.287-0.692-0.287-1.062c0-0.186,0.024-0.372,0.072-0.563c-2.489-0.058-4.354-1.881-4.354-4.285
			c0-1.699,1.356-3.351,3.297-4.02c0.582-0.201,1.172-0.303,1.756-0.303h5.325c0.182,0,0.341,0.117,0.397,0.29
			c0.059,0.174-0.006,0.363-0.152,0.469l-1.191,0.862c-0.071,0.051-0.158,0.08-0.246,0.08h-0.426
			c0.552,0.659,0.874,1.599,0.874,2.656c0,1.168-0.591,2.271-1.664,3.111c-0.829,0.646-0.863,0.822-0.863,1.193
			c0.011,0.204,0.59,0.864,1.226,1.314c1.485,1.052,2.039,2.081,2.039,3.803C30.275,35.428,28.91,36.984,26.8,37.596z
			 M38.828,28.462c0,0.23-0.189,0.418-0.42,0.418h-3.025v3.027c0,0.231-0.187,0.419-0.419,0.419h-0.861
			c-0.232,0-0.42-0.188-0.42-0.419V28.88h-3.027c-0.229,0-0.418-0.188-0.418-0.418v-0.863c0-0.23,0.188-0.419,0.418-0.419h3.027
			v-3.026c0-0.232,0.188-0.418,0.419-0.418h0.861c0.232,0,0.419,0.187,0.419,0.418v3.026h3.026c0.23,0,0.419,0.188,0.419,0.419
			L38.828,28.462L38.828,28.462z"/>
	</defs>
	<clipPath id="SVGID_8_">
		<use xlink:href="#SVGID_7_"  overflow="visible"/>
	</clipPath>
	<linearGradient id="SVGID_9_" gradientUnits="userSpaceOnUse" x1="28.3459" y1="11.3464" x2="28.3459" y2="45.3469">
		<stop  offset="0" style="stop-color:#FFFFFF"/>
		<stop  offset="1" style="stop-color:#CCCCCC"/>
	</linearGradient>
	<rect x="11.346" y="11.346" clip-path="url(#SVGID_8_)" fill="url(#SVGID_9_)" width="34" height="34"/>
</g>
</svg>
