<?xml version="1.0" encoding="utf-8"?>
<!-- Generator: Adobe Illustrator 14.0.0, SVG Export Plug-In  -->
<!DOCTYPE svg PUBLIC "-//W3C//DTD SVG 1.1//EN" "http://www.w3.org/Graphics/SVG/1.1/DTD/svg11.dtd" [
	<!ENTITY ns_flows "http://ns.adobe.com/Flows/1.0/">
]>
<svg version="1.1"
	 xmlns="http://www.w3.org/2000/svg" xmlns:xlink="http://www.w3.org/1999/xlink" xmlns:a="http://ns.adobe.com/AdobeSVGViewerExtensions/3.0/"
	 x="0px" y="0px" width="127px" height="50px" viewBox="-14.675 -10.926 127 50" enable-background="new -14.675 -10.926 127 50"
	 xml:space="preserve">
<defs>
</defs>
<path fill="#333333" d="M39.912,24.898L36.183,7.803l0.264,17.096h-2.872V1.598h3.301l3.664,15.875L40.407,1.598h2.904v23.301
	H39.912z"/>
<path fill="#333333" d="M55.235,22.027c-0.858,3.07-3.796,3.234-4.72,3.234c-0.825,0-3.399-0.164-4.356-2.738
	c-0.264-0.66-0.396-1.32-0.396-2.74V1.598h3.003v18.021c0,1.318-0.033,3.102,1.848,3.102c0.198,0,0.759,0,1.188-0.363
	c0.66-0.561,0.693-1.387,0.693-2.938V1.598h3.037v17.658C55.532,19.453,55.532,20.938,55.235,22.027z"/>
<path fill="#333333" d="M58.015,24.898V1.598h7.691v2.904h-4.588v6.832h4.092v2.904h-4.059v7.723h4.555v2.938H58.015z"/>
<path fill="#333333" d="M74.064,24.898L70.335,7.803l0.264,17.096h-2.871V1.598h3.301l3.662,15.875L74.56,1.598h2.904v23.301H74.064
	z"/>
<path fill="#333333" d="M88.949,22.787c-0.496,2.244-2.443,2.111-3.137,2.111h-5.908V1.598h5.645c0.297,0,1.65-0.1,2.574,0.693
	c0.957,0.824,0.99,1.947,0.99,3.068v15.514C89.113,21.83,89.046,22.357,88.949,22.787z M86.011,6.053c0-0.23,0-0.461-0.033-0.693
	c-0.133-0.957-0.957-0.924-1.223-0.924h-1.781v17.592h2.047c0.693,0,0.99-0.197,0.99-1.287V6.053z"/>
<path fill="#333333" d="M100.853,22.424c-0.988,2.738-4.025,2.707-4.719,2.707c-0.264,0-1.154,0-1.947-0.299
	c-0.627-0.23-2.014-1.021-2.508-2.838c-0.199-0.693-0.232-1.121-0.232-2.441V7.934c0-2.078,0-4.092,1.816-5.479
	c0.561-0.428,1.551-1.023,3.201-1.023c0.494,0,1.881,0,3.037,0.924c0.594,0.463,0.924,0.992,1.055,1.256
	c0.66,1.154,0.693,2.375,0.693,4.982v11.09C101.25,20.576,101.183,21.533,100.853,22.424z M98.181,7.67c0-1.418,0-2.311-0.363-2.871
	c-0.199-0.297-0.594-0.693-1.42-0.693c-0.164,0-0.693,0.033-1.121,0.33c-0.826,0.529-0.76,1.486-0.76,3.234v12.477
	c0,1.254,0.197,2.441,1.781,2.441c1.98,0,1.883-1.781,1.883-3.168V7.67z"/>
<path fill="#333333" d="M18.27,16.85l-6.08,3.512v-2.918c0-2.205,1.644-3.154,3.554-2.053L18.27,16.85z M4.233,24.951
	C1.958,26.264,0,25.133,0,22.508V2.992c0-2.625,1.958-3.756,4.233-2.443l16.899,9.756c2.162,1.248,2.27,3.354,0.322,4.688
	L10.057,8.41c-2.275-1.313-4.233-0.182-4.233,2.445v13.178L4.233,24.951z"/>
</svg>
