<?xml version="1.0" encoding="utf-8"?>
<!-- Generator: Adobe Illustrator 14.0.0, SVG Export Plug-In  -->
<!DOCTYPE svg PUBLIC "-//W3C//DTD SVG 1.1//EN" "http://www.w3.org/Graphics/SVG/1.1/DTD/svg11.dtd" [
	<!ENTITY ns_flows "http://ns.adobe.com/Flows/1.0/">
]>
<svg version="1.1"
	 xmlns="http://www.w3.org/2000/svg" xmlns:xlink="http://www.w3.org/1999/xlink" xmlns:a="http://ns.adobe.com/AdobeSVGViewerExtensions/3.0/"
	 x="0px" y="0px" width="125px" height="50px" viewBox="-8.486 -12.061 125 50" enable-background="new -8.486 -12.061 125 50"
	 xml:space="preserve">
<defs>
</defs>
<path fill="#333333" d="M47.897,23.83c-0.396,0.165-1.022,0.362-2.045,0.362c-1.882,0-2.905-0.792-3.4-1.386
	c-0.957-1.089-1.023-2.344-1.023-3.696v-3.862h2.838v4.258c0,1.122,0.165,1.617,0.66,1.947c0.132,0.1,0.429,0.297,0.925,0.297
	c1.518-0.032,1.484-1.683,1.484-2.739c0-1.683-0.264-2.607-1.122-4.06c-0.858-1.518-1.914-2.871-2.806-4.356
	c-0.494-0.792-1.781-2.772-1.781-5.479c0-2.574,1.121-3.928,2.078-4.489C44.202,0.33,45.026,0,46.347,0
	c0.627,0,2.971-0.033,3.697,2.244c0.131,0.43,0.23,0.825,0.23,1.75v4.125H47.47V3.994c-0.033-0.265,0.065-1.585-1.222-1.585
	c-1.485,0-1.519,1.287-1.519,2.377c0,1.947,0.528,3.036,1.551,4.653c0.43,0.693,0.892,1.354,1.354,2.047
	c0.363,0.495,0.693,0.989,1.023,1.518c1.617,2.542,1.815,4.291,1.815,5.644C50.473,19.143,50.505,22.642,47.897,23.83z"/>
<path fill="#333333" d="M52.688,23.764V0.463h7.69v2.904h-4.587v6.831h4.093v2.905h-4.061v7.723h4.555v2.938H52.688z"/>
<path fill="#333333" d="M72.072,19.176c-0.033,0.495,0,2.344-1.256,3.564c-0.561,0.528-1.121,0.76-1.385,0.858
	c-0.43,0.165-0.627,0.198-1.057,0.264v0.628c0,0.924,0.627,1.154,1.484,1.154c0.496,0,0.99-0.032,1.486-0.099v2.839
	c-0.891,0.032-2.113,0.099-2.971-0.1c-2.377-0.495-2.607-2.376-2.707-4.455c-0.924-0.265-1.287-0.463-1.684-0.727
	c-1.814-1.287-1.682-3.828-1.682-4.323V7.195c0-0.132-0.033-1.849,0.164-2.971c0.1-0.561,0.33-1.782,1.518-2.771
	c1.32-1.156,2.84-1.156,3.434-1.156c0.693,0,2.277,0.033,3.531,1.519c1.188,1.387,1.156,3.301,1.156,4.983v10.958
	C72.105,18.219,72.072,18.681,72.072,19.176z M69.068,5.776c0-0.265-0.033-0.528-0.033-0.792c-0.033-0.495-0.033-2.014-1.783-2.014
	c-0.791,0-1.451,0.363-1.715,1.122c-0.166,0.396-0.166,0.924-0.166,0.99v13.763c0,0.727,0.033,1.287,0.133,1.552
	c0.131,0.462,0.561,1.056,1.684,1.089c0.395,0,0.824-0.066,1.188-0.33c0.627-0.495,0.693-1.419,0.693-2.938V5.776z"/>
<path fill="#333333" d="M83.951,20.893c-0.857,3.069-3.795,3.234-4.719,3.234c-0.826,0-3.4-0.165-4.357-2.739
	c-0.264-0.66-0.396-1.32-0.396-2.74V0.463h3.004v18.021c0,1.319-0.033,3.102,1.848,3.102c0.199,0,0.76,0,1.189-0.362
	c0.66-0.562,0.693-1.387,0.693-2.938V0.463h3.035V18.12C84.248,18.318,84.248,19.803,83.951,20.893z"/>
<path fill="#333333" d="M86.732,23.764V0.463h7.689v2.904h-4.588v6.831h4.092v2.905h-4.059v7.723h4.555v2.938H86.732z"/>
<path fill="#333333" d="M96.476,23.764V0.463h3.07v20.43h5.082v2.871H96.476z"/>
<path fill-rule="evenodd" clip-rule="evenodd" fill="#333333" d="M22.797,9.03l-4.293-4.789c-0.173-0.118-0.384-0.196-0.605-0.235
	c-0.19-0.074-0.41-0.117-0.644-0.117h-4.921c-0.723,0-0.974,0.134-1.457,0.762L8.955,7.152C8.422,8.106,9.279,8.65,10.001,8.65
	h5.124l4.336,4.728c0.27,0.259,0.666,0.413,1.113,0.413h12.133c0.722,0,1.381-0.301,1.253-1.084l-1.234-2.873
	c-0.21-0.677-0.668-0.804-1.391-0.804H22.797z M11.179,15.55l4.293,4.787c0.173,0.118,0.384,0.198,0.605,0.236
	c0.19,0.074,0.41,0.116,0.644,0.116h4.921c0.723,0,0.974-0.133,1.457-0.761l1.921-2.503c0.532-0.952-0.325-1.496-1.046-1.496h-5.124
	l-4.336-4.729c-0.27-0.258-0.665-0.413-1.112-0.413H1.269c-0.722,0-1.381,0.302-1.252,1.084l1.234,2.872
	c0.21,0.677,0.668,0.806,1.391,0.806H11.179z"/>
</svg>
