<?xml version="1.0" encoding="utf-8"?>
<!-- Generator: Adobe Illustrator 14.0.0, SVG Export Plug-In . SVG Version: 6.00 Build 43363)  -->
<!DOCTYPE svg PUBLIC "-//W3C//DTD SVG 1.1//EN" "http://www.w3.org/Graphics/SVG/1.1/DTD/svg11.dtd">
<svg version="1.1" id="Layer_1" xmlns="http://www.w3.org/2000/svg" xmlns:xlink="http://www.w3.org/1999/xlink" x="0px" y="0px"
	 width="34px" height="34px" viewBox="11.346 11.346 34 34" enable-background="new 11.346 11.346 34 34" xml:space="preserve">
<linearGradient id="SVGID_1_" gradientUnits="userSpaceOnUse" x1="28.3459" y1="11.3464" x2="28.3459" y2="45.3469">
	<stop  offset="0" style="stop-color:#FFFFFF"/>
	<stop  offset="1" style="stop-color:#CCCCCC"/>
</linearGradient>
<path fill="url(#SVGID_1_)" d="M28.347,11.346c-9.39,0-17,7.61-17,17s7.611,17,17,17c9.388,0,17-7.611,17-17
	S37.734,11.346,28.347,11.346z M16.955,30.653c-0.008,0.055-0.047,0.092-0.096,0.092s-0.088-0.037-0.095-0.092l-0.174-1.301
	l0.174-1.323c0.007-0.055,0.046-0.094,0.095-0.094s0.088,0.039,0.096,0.094l0.206,1.323L16.955,30.653z M17.839,31.446
	c-0.008,0.057-0.049,0.096-0.099,0.096c-0.051,0-0.092-0.041-0.1-0.098l-0.234-2.091l0.234-2.14c0.008-0.055,0.049-0.096,0.1-0.096
	c0.05,0,0.091,0.04,0.099,0.096l0.266,2.14L17.839,31.446z M18.796,31.8c-0.007,0.066-0.057,0.116-0.12,0.116
	c-0.063,0-0.113-0.05-0.119-0.117l-0.222-2.446l0.222-2.538c0.006-0.069,0.057-0.119,0.119-0.119c0.062,0,0.113,0.049,0.12,0.119
	l0.252,2.538L18.796,31.8z M19.759,31.876c-0.007,0.08-0.067,0.138-0.14,0.138c-0.073,0-0.134-0.058-0.14-0.138l-0.209-2.522
	l0.21-2.607c0.006-0.079,0.066-0.138,0.14-0.138c0.073,0,0.132,0.059,0.14,0.137l0.238,2.609L19.759,31.876z M20.731,31.897
	c-0.006,0.091-0.075,0.158-0.16,0.158c-0.086,0-0.155-0.067-0.16-0.158l-0.198-2.544l0.198-2.418c0.005-0.09,0.074-0.159,0.16-0.159
	c0.085,0,0.154,0.068,0.16,0.157l0.225,2.421L20.731,31.897z M21.71,31.899v-0.002c-0.005,0.101-0.085,0.18-0.18,0.18
	c-0.096,0-0.175-0.078-0.181-0.178l-0.186-2.546l0.186-3.936c0.005-0.1,0.084-0.178,0.181-0.178c0.095,0,0.175,0.079,0.18,0.178
	l0.211,3.936L21.71,31.899z M22.697,31.884v-0.002c-0.005,0.112-0.093,0.198-0.201,0.198s-0.196-0.086-0.201-0.196l-0.174-2.528
	l0.174-4.837c0.005-0.112,0.093-0.198,0.201-0.198s0.195,0.086,0.201,0.198l0.197,4.837L22.697,31.884z M23.692,31.858v-0.002
	c-0.005,0.123-0.103,0.219-0.221,0.219c-0.12,0-0.216-0.097-0.221-0.217l-0.162-2.503l0.162-5.24c0.005-0.123,0.101-0.22,0.221-0.22
	c0.119,0,0.216,0.098,0.221,0.22l0.183,5.24L23.692,31.858z M24.694,31.841v0.003v-0.001c-0.006,0.134-0.11,0.238-0.242,0.238
	c-0.131,0-0.237-0.105-0.242-0.237l-0.149-2.488l0.149-5.417c0.004-0.135,0.111-0.239,0.242-0.239c0.131,0,0.237,0.103,0.242,0.239
	l0.169,5.417l-0.169,2.487C24.694,31.843,24.694,31.843,24.694,31.841z M25.704,31.819L25.704,31.819
	c-0.004,0.145-0.119,0.261-0.262,0.261c-0.144,0-0.259-0.116-0.262-0.261l-0.138-2.463l0.138-5.278
	c0.003-0.146,0.118-0.26,0.262-0.26c0.143,0,0.257,0.113,0.262,0.26l0.155,5.278L25.704,31.819z M26.721,31.803v-0.002
	c-0.004,0.158-0.128,0.281-0.282,0.281c-0.155,0-0.278-0.124-0.282-0.279l-0.126-2.447l0.126-5.086
	c0.004-0.158,0.128-0.28,0.282-0.28s0.278,0.123,0.282,0.278l0.141,5.087L26.721,31.803z M27.747,31.788L27.747,31.788
	c-0.002,0.164-0.139,0.301-0.303,0.301c-0.164,0-0.299-0.136-0.302-0.301c0,0-0.115-2.429-0.115-2.432l0.115-6.051
	c0.002-0.166,0.137-0.301,0.302-0.301c0.164,0,0.3,0.135,0.303,0.301l0.127,6.052L27.747,31.788z M28.767,31.755v-0.004
	c-0.003,0.178-0.147,0.322-0.322,0.322s-0.321-0.145-0.323-0.32l-0.132-2.396l0.132-6.599c0.002-0.177,0.148-0.322,0.323-0.322
	s0.319,0.145,0.322,0.322l0.145,6.6L28.767,31.755z M37.482,32.094c-0.052,0-8.114-0.003-8.122-0.004
	c-0.175-0.017-0.313-0.167-0.316-0.347v-9.299c0.003-0.171,0.061-0.259,0.282-0.345c0.568-0.22,1.213-0.351,1.875-0.351
	c2.701,0,4.915,2.072,5.148,4.712c0.349-0.146,0.732-0.226,1.133-0.226c1.619,0,2.931,1.31,2.931,2.93
	C40.413,30.782,39.101,32.094,37.482,32.094z"/>
</svg>
