<?xml version="1.0" encoding="UTF-8" standalone="no"?>
<!-- Generator: Adobe Illustrator 14.0.0, SVG Export Plug-In  -->

<svg
   xmlns:dc="http://purl.org/dc/elements/1.1/"
   xmlns:cc="http://creativecommons.org/ns#"
   xmlns:rdf="http://www.w3.org/1999/02/22-rdf-syntax-ns#"
   xmlns:svg="http://www.w3.org/2000/svg"
   xmlns="http://www.w3.org/2000/svg"
   xmlns:sodipodi="http://sodipodi.sourceforge.net/DTD/sodipodi-0.dtd"
   xmlns:inkscape="http://www.inkscape.org/namespaces/inkscape"
   version="1.1"
   x="0px"
   y="0px"
   width="155px"
   height="50px"
   viewBox="-1 -2.719 155 50"
   enable-background="new -1 -2.719 155 50"
   xml:space="preserve"
   id="svg2"
   inkscape:version="0.48.2 r9819"
   sodipodi:docname="steinberg-creativity.svg"><metadata
   id="metadata62"><rdf:RDF><cc:Work
       rdf:about=""><dc:format>image/svg+xml</dc:format><dc:type
         rdf:resource="http://purl.org/dc/dcmitype/StillImage" /></cc:Work></rdf:RDF></metadata><sodipodi:namedview
   pagecolor="#ffffff"
   bordercolor="#666666"
   borderopacity="1"
   objecttolerance="10"
   gridtolerance="10"
   guidetolerance="10"
   inkscape:pageopacity="0"
   inkscape:pageshadow="2"
   inkscape:window-width="837"
   inkscape:window-height="480"
   id="namedview60"
   showgrid="false"
   inkscape:zoom="2.6903226"
   inkscape:cx="108.03298"
   inkscape:cy="25"
   inkscape:window-x="500"
   inkscape:window-y="286"
   inkscape:window-maximized="0"
   inkscape:current-layer="svg2" />
<defs
   id="defs4">
</defs>
<path
   fill="#FFFFFF"
   d="M0.172,17.15c0-9.377,7.602-16.979,16.979-16.979c9.378,0,16.979,7.601,16.979,16.979  c0,9.379-7.602,16.98-16.979,16.98C7.773,34.131,0.172,26.529,0.172,17.15L0.172,17.15z"
   id="path6" />
<path
   fill="#1A171B"
   d="M21.025,21.986c-0.918,0.529-1.708,0.073-1.708-0.984v-7.873c0-1.06,0.79-1.516,1.708-0.984l6.816,3.936  c0.918,0.529,0.918,1.441,0,1.971L21.025,21.986L21.025,21.986z"
   id="path8" />
<path
   fill="#AF142D"
   d="M41.755,23.861c0.871,0.818,2.851,2.667,6.679,2.667c3.246,0,6.519-1.585,6.519-4.831  c0-3.272-3.22-4.012-5.991-4.514c-1.321-0.237-2.191-0.396-2.191-1.188c0-0.395,0.369-1.029,1.953-1.029  c0.95,0,2.165,0.369,3.458,1.373l2.507-2.323c-0.95-0.659-2.903-2.059-6.15-2.059c-3.854,0-5.807,2.349-5.807,4.619  c0,1.029,0.422,1.98,1.029,2.588c0.607,0.606,1.452,0.95,2.296,1.188c0.607,0.186,1.241,0.316,1.848,0.422  c0.792,0.132,1.742,0.212,2.349,0.528c0.238,0.132,0.528,0.315,0.528,0.791c0,1.029-1.478,1.346-2.455,1.346  c-1.53,0-2.903-0.817-4.012-1.899L41.755,23.861L41.755,23.861z"
   id="path10" />
<path
   fill="#AF142D"
   d="M57.06,12.696h-2.006v2.482h2.006v6.65c0,1.319,0.027,2.297,0.581,3.114  c0.872,1.269,2.402,1.346,3.802,1.346c0.739,0,1.267-0.077,2.138-0.209v-3.168l-1.452,0.051c-1.082,0-1.082-0.711-1.055-1.556  v-6.203h2.691v-2.481h-2.666V8.421H57.06V12.696L57.06,12.696z"
   id="path12" />
<path
   fill-rule="evenodd"
   clip-rule="evenodd"
   fill="#AF142D"
   d="M74.92,21.117c-0.501,0.976-1.267,2.429-3.484,2.429  c-2.191,0-3.168-1.717-3.142-3.432h9.846c-0.053-1.558-0.158-4.25-1.953-6.177c-1.769-1.9-4.144-1.98-4.962-1.98  c-5.438,0-7.075,4.275-7.075,7.603c0,4.513,2.878,7.127,6.969,7.127c2.216,0,4.012-0.846,5.199-1.953  c0.714-0.661,1.189-1.346,1.664-2.061L74.92,21.117L74.92,21.117z M68.321,17.578c0.133-0.58,0.265-1.212,0.819-1.819  c0.395-0.424,1.082-0.897,2.059-0.897c0.712,0,1.478,0.264,1.979,0.766c0.582,0.605,0.687,1.371,0.766,1.951H68.321L68.321,17.578z"
   id="path14" />
<path
   fill-rule="evenodd"
   clip-rule="evenodd"
   fill="#AF142D"
   d="M79.74,10.664h4.012V7.523H79.74V10.664L79.74,10.664z   M79.74,26.185h4.012V12.379H79.74V26.185L79.74,26.185z"
   id="path16" />
<path
   fill="#AF142D"
   d="M90.48,12.433h-4.091v13.752h4.064v-7.443c0-1.717,0-3.432,2.138-3.432c0.792,0,1.504,0.317,1.821,1.057  c0.159,0.368,0.186,0.817,0.186,2.059v7.76h4.039v-9.423c0-2.139-0.37-3.378-1.822-4.145c-0.712-0.396-1.637-0.555-2.455-0.555  c-0.977,0-1.874,0.238-2.507,0.502c-0.713,0.344-0.976,0.66-1.373,1.082V12.433L90.48,12.433z"
   id="path18" />
<path
   fill-rule="evenodd"
   clip-rule="evenodd"
   fill="#AF142D"
   d="M101.241,7.523v18.661h3.907l-0.159-1.451  c0.501,0.554,1.609,1.82,4.039,1.82c2.745,0,4.434-1.742,5.147-3.301c0.607-1.212,0.844-2.849,0.844-4.248  c0-5.489-3.643-7.021-5.859-7.021c-2.35,0-3.379,1.057-3.959,1.663V7.523H101.241L101.241,7.523z M108.078,14.966  c2.297-0.131,2.982,1.98,2.982,4.171c0,0.607-0.079,2.402-0.818,3.378c-0.343,0.424-1.029,1.031-2.11,1.031  c-0.925,0-1.875-0.449-2.402-1.294c-0.476-0.818-0.634-2.086-0.634-3.088C105.095,18.344,105.122,15.125,108.078,14.966  L108.078,14.966z"
   id="path20" />
<path
   fill-rule="evenodd"
   clip-rule="evenodd"
   fill="#AF142D"
   d="M126.744,21.117c-0.501,0.976-1.267,2.429-3.484,2.429  c-2.191,0-3.167-1.717-3.141-3.432h9.846c-0.053-1.558-0.159-4.25-1.954-6.177c-1.768-1.9-4.143-1.98-4.961-1.98  c-5.438,0-7.074,4.275-7.074,7.603c0,4.513,2.876,7.127,6.968,7.127c2.218,0,4.013-0.846,5.201-1.953  c0.712-0.661,1.187-1.346,1.662-2.061L126.744,21.117L126.744,21.117z M120.146,17.578c0.131-0.58,0.263-1.212,0.818-1.819  c0.396-0.424,1.082-0.897,2.059-0.897c0.713,0,1.478,0.264,1.98,0.766c0.581,0.605,0.687,1.371,0.766,1.951H120.146L120.146,17.578z  "
   id="path22" />
<path
   fill="#AF142D"
   d="M135.417,12.379h-3.959v13.806h4.065v-7.76c0-1.744,0.581-2.034,2.534-2.376l1.347-0.211v-3.591  c-2.112,0.213-3.089,0.819-3.986,1.586V12.379L135.417,12.379z"
   id="path24" />
<path
   fill-rule="evenodd"
   clip-rule="evenodd"
   fill="#AF142D"
   d="M148.988,25.841c0,1.136,0,2.588-2.455,2.588  c-0.634,0-1.03-0.132-1.293-0.264c-1.083-0.503-1.136-1.373-1.188-1.98h-4.198c0,0.739-0.026,2.139,1.056,3.22  c0.739,0.766,2.534,1.717,5.279,1.717c1.241,0,3.3-0.212,4.698-1.057c2.006-1.16,2.06-2.929,2.112-4.434V12.379h-3.801v1.295  c-0.607-0.581-1.584-1.504-3.696-1.504c-4.567,0-5.859,3.984-5.859,6.755c0,2.377,0.712,4.514,2.56,5.701  c0.897,0.608,2.007,0.898,3.141,0.898c1.875,0,2.852-0.632,3.644-1.161V25.841L148.988,25.841z M146.243,15.204  c1.162-0.052,1.901,0.501,2.218,1.004c0.449,0.659,0.501,2.031,0.501,2.691c0,1.954-0.476,3.563-2.534,3.563  c-2.508,0-2.586-2.402-2.586-3.563C143.841,16.946,144.315,15.283,146.243,15.204L146.243,15.204z"
   id="path26" />
<path
   fill-rule="evenodd"
   clip-rule="evenodd"
   fill="#AF142D"
   d="M3.898,17.15c0-7.318,5.933-13.252,13.252-13.252  S30.403,9.832,30.403,17.15c0,7.319-5.934,13.254-13.253,13.254S3.898,24.47,3.898,17.15L3.898,17.15z M0,17.15  C0,7.678,7.678,0,17.15,0c9.473,0,17.151,7.678,17.151,17.15c0,9.473-7.679,17.152-17.151,17.152C7.678,34.303,0,26.623,0,17.15  L0,17.15z"
   id="path28" />
<path
   fill="#C6C7C8"
   d="M48.297,35.86c0.413,0,0.953,0.093,1.389,0.368c0.424,0.275,0.562,0.585,0.677,0.814l2.686-0.483  c-0.264-0.767-0.884-2.558-4.822-2.558c-4.615,0-5.441,2.835-5.441,4.407c0,2.227,1.378,3.502,3.043,4.018  c0.746,0.23,1.526,0.299,2.319,0.299c1.779,0,3.639-0.413,4.591-1.883c0.265-0.413,0.367-0.711,0.459-1.009l-2.767-0.289  c-0.092,0.242-0.207,0.505-0.585,0.815c-0.425,0.346-1.011,0.539-1.642,0.539c-1.665,0-2.388-1.273-2.388-2.502  C45.817,36.677,46.988,35.86,48.297,35.86L48.297,35.86z"
   id="path30"
   style="fill:#747472;fill-opacity:1" />
<path
   fill-rule="evenodd"
   clip-rule="evenodd"
   fill="#C6C7C8"
   d="M56.973,36.366h-2.709v6.083h2.698v-2.721  c0.011-0.274,0.022-0.562,0.287-0.803c0.171-0.16,0.459-0.321,1.182-0.321c0.23,0,0.437,0.023,0.643,0.045v-2.397  c-0.344,0.01-0.757,0.033-1.263,0.308c-0.344,0.185-0.631,0.448-0.838,0.77V36.366L56.973,36.366z"
   id="path32"
   style="fill:#747472;fill-opacity:1" />
<path
   fill-rule="evenodd"
   clip-rule="evenodd"
   fill="#C6C7C8"
   d="M68.595,39.787c-0.023-0.679-0.057-1.595-0.907-2.458  c-0.941-0.963-2.331-1.136-3.559-1.136c-0.907,0-2.733,0.035-3.766,1.355c-0.322,0.4-0.608,1.032-0.608,1.837  c0,1.423,0.838,2.364,2.009,2.835c0.746,0.299,1.551,0.401,2.354,0.401c0.528,0,1.974-0.069,3.03-0.644  c0.838-0.459,1.137-1.032,1.286-1.308l-2.824-0.138c-0.161,0.161-0.276,0.275-0.563,0.39c-0.195,0.081-0.481,0.161-0.803,0.161  c-0.517,0-1.469-0.229-1.687-1.297H68.595L68.595,39.787z M62.647,38.73c0.116-0.275,0.402-0.986,1.551-0.986  c0.287,0,0.746,0.045,1.113,0.343c0.287,0.243,0.344,0.413,0.436,0.644H62.647L62.647,38.73z"
   id="path34"
   style="fill:#747472;fill-opacity:1" />
<path
   fill-rule="evenodd"
   clip-rule="evenodd"
   fill="#C6C7C8"
   d="M72.344,38.271c0.069-0.161,0.138-0.345,0.619-0.459  c0.299-0.068,0.724-0.092,0.861-0.092c0.839,0,1.068,0.229,1.171,0.354c0.138,0.173,0.138,0.334,0.138,0.494  c-1.32,0.023-3.236,0.059-4.248,0.369c-0.528,0.158-0.884,0.424-1.079,0.688c-0.218,0.299-0.322,0.7-0.322,1.057  c0,0.573,0.241,1.067,0.711,1.41c0.552,0.427,1.274,0.541,1.963,0.541c1.274,0,2.319-0.459,3.02-0.758  c0.022,0.275,0.034,0.345,0.103,0.585h2.813c-0.264-0.251-0.322-0.424-0.333-0.895v-3.181c0-0.413,0-1.319-0.987-1.791  c-0.666-0.333-1.825-0.436-3.042-0.436c-1.435,0-2.492,0.219-3.065,0.562c-0.734,0.448-0.86,1.161-0.929,1.551H72.344L72.344,38.271  z M75.18,39.66c-0.08,0.332-0.172,0.7-0.724,1.011c-0.39,0.229-0.837,0.345-1.285,0.345c-0.816,0-0.954-0.427-0.954-0.608  c0-0.54,0.712-0.608,1.103-0.644C73.778,39.717,74.732,39.684,75.18,39.66L75.18,39.66z"
   id="path36"
   style="fill:#747472;fill-opacity:1" />
<path
   fill="#C6C7C8"
   d="M82.236,34.563h-2.618l-0.022,2.055h-0.874v1.574h0.85l-0.035,2.467l-0.012,0.413  c0.012,0.31,0,0.619,0.265,0.953c0.355,0.345,0.826,0.401,1.71,0.424h1.734v-1.721c-0.701,0-0.964,0-0.988-0.54v-1.996h0.976v-1.574  h-0.987V34.563L82.236,34.563z"
   id="path38"
   style="fill:#747472;fill-opacity:1" />
<path
   fill-rule="evenodd"
   clip-rule="evenodd"
   fill="#C6C7C8"
   d="M84.437,35.758h2.698v-1.413h-2.698V35.758L84.437,35.758z   M84.448,42.449h2.687v-6.071h-2.687V42.449L84.448,42.449z"
   id="path40"
   style="fill:#747472;fill-opacity:1" />
<path
   fill="#C6C7C8"
   d="M90.995,42.449h2.79l2.801-6.083h-2.928l-0.827,2.169c-0.229,0.573-0.275,0.746-0.447,1.366  c-0.195-0.665-0.252-0.837-0.494-1.446l-0.792-2.089H88.16L90.995,42.449L90.995,42.449z"
   id="path42"
   style="fill:#747472;fill-opacity:1" />
<path
   fill-rule="evenodd"
   clip-rule="evenodd"
   fill="#C6C7C8"
   d="M97.602,35.758h2.696v-1.413h-2.696V35.758L97.602,35.758z   M97.612,42.449h2.686v-6.071h-2.686V42.449L97.612,42.449z"
   id="path44"
   style="fill:#747472;fill-opacity:1" />
<path
   fill="#C6C7C8"
   d="M104.745,34.563h-2.617l-0.024,2.055h-0.872v1.574h0.85l-0.035,2.467l-0.012,0.413  c0.012,0.31,0,0.619,0.264,0.953c0.356,0.345,0.827,0.401,1.71,0.424h1.734v-1.721c-0.701,0-0.965,0-0.988-0.54v-1.996h0.976v-1.574  h-0.988V34.563L104.745,34.563z"
   id="path46"
   style="fill:#747472;fill-opacity:1" />
<path
   fill="#C6C7C8"
   d="M108.943,42.104c0.046,0.116,0.115,0.254,0.115,0.38c0,0.287-0.275,0.354-0.55,0.354h-1.252v1.724h1.424  c0.93-0.012,1.286-0.035,1.769-0.299c0.666-0.379,0.952-0.965,1.251-1.585l2.88-6.313h-2.973l-0.688,2.054  c-0.264,0.884-0.321,1.125-0.47,1.987c-0.173-1.057-0.242-1.331-0.598-2.423l-0.539-1.618h-2.952L108.943,42.104L108.943,42.104z"
   id="path48"
   style="fill:#747472;fill-opacity:1" />
<polygon
   fill="#C6C7C8"
   points="120.506,42.449 123.411,42.449 123.411,39.535 128.037,39.535 128.037,37.721 123.411,37.721   123.411,36.171 128.451,36.171 128.451,34.345 120.506,34.345 120.506,42.449 "
   id="polygon50"
   style="fill:#747472;fill-opacity:1" />
<path
   fill-rule="evenodd"
   clip-rule="evenodd"
   fill="#C6C7C8"
   d="M129.459,35.758h2.698v-1.413h-2.698V35.758L129.459,35.758z   M129.471,42.449h2.686v-6.071h-2.686V42.449L129.471,42.449z"
   id="path52"
   style="fill:#747472;fill-opacity:1" />
<path
   fill-rule="evenodd"
   clip-rule="evenodd"
   fill="#C6C7C8"
   d="M136.478,36.366h-2.709v6.083h2.698v-2.721  c0.012-0.274,0.023-0.562,0.287-0.803c0.172-0.16,0.459-0.321,1.184-0.321c0.229,0,0.436,0.023,0.642,0.045v-2.397  c-0.344,0.01-0.758,0.033-1.263,0.308c-0.344,0.185-0.632,0.448-0.838,0.77V36.366L136.478,36.366z"
   id="path54"
   style="fill:#747472;fill-opacity:1" />
<path
   fill="#C6C7C8"
   d="M139.123,40.589c0.057,0.632,0.251,1.126,0.953,1.492c0.642,0.334,1.826,0.564,3.134,0.564  c1.928,0,2.79-0.494,3.295-0.965c0.275-0.275,0.574-0.653,0.574-1.251c0-1.229-1.137-1.424-2.055-1.573  c-0.391-0.058-2.101-0.252-2.434-0.345c-0.356-0.092-0.517-0.193-0.517-0.39c0-0.333,0.448-0.482,0.964-0.482  c0.252,0,1.229,0.046,1.343,0.655l2.686-0.114c-0.39-1.598-2.1-2.021-3.857-2.021c-0.827,0-3.8,0.022-3.8,1.963  c0,1.147,0.803,1.446,1.986,1.721c0.471,0.105,0.942,0.185,1.423,0.254c0.85,0.127,1.274,0.185,1.423,0.354  c0.035,0.035,0.081,0.105,0.081,0.208c0,0.378-0.528,0.527-1.068,0.527c-0.459,0-0.987-0.114-1.229-0.367  c-0.125-0.137-0.149-0.251-0.172-0.345L139.123,40.589L139.123,40.589z"
   id="path56"
   style="fill:#747472;fill-opacity:1" />
<path
   fill="#C6C7C8"
   d="M151.204,34.563h-2.617l-0.023,2.055h-0.872v1.574h0.85l-0.035,2.467l-0.012,0.413  c0.012,0.31,0,0.619,0.265,0.953c0.355,0.345,0.827,0.401,1.71,0.424h1.733v-1.721c-0.701,0-0.964,0-0.987-0.54v-1.996h0.976v-1.574  h-0.987V34.563L151.204,34.563z"
   id="path58"
   style="fill:#747472;fill-opacity:1" />
</svg>