<?xml version="1.0" encoding="utf-8"?>
<!-- Generator: Adobe Illustrator 14.0.0, SVG Export Plug-In  -->
<!DOCTYPE svg PUBLIC "-//W3C//DTD SVG 1.1//EN" "http://www.w3.org/Graphics/SVG/1.1/DTD/svg11.dtd" [
	<!ENTITY ns_flows "http://ns.adobe.com/Flows/1.0/">
]>
<svg version="1.1"
	 xmlns="http://www.w3.org/2000/svg" xmlns:xlink="http://www.w3.org/1999/xlink" xmlns:a="http://ns.adobe.com/AdobeSVGViewerExtensions/3.0/"
	 x="0px" y="0px" width="139px" height="50px" viewBox="-15.034 -12.077 139 50" enable-background="new -15.034 -12.077 139 50"
	 xml:space="preserve">
<defs>
</defs>
<path fill="#333333" d="M43.919,23.747h-3.532L38.804,8.169l-1.453,15.578H33.82L31.212,0.446h3.037l1.419,18.021l1.716-18.021
	h2.805l1.947,18.021l1.453-18.021h3.036L43.919,23.747z"/>
<path fill="#333333" d="M54.237,23.747l-0.594-4.291h-3.498l-0.528,4.291h-3.003l3.3-23.301h3.729l3.598,23.301H54.237z
	 M51.762,4.505l-1.287,12.113h2.771L51.762,4.505z"/>
<path fill="#333333" d="M64.062,23.747h-3.631L56.866,0.446h3.07l2.376,18.68l2.276-18.68h3.037L64.062,23.747z"/>
<path fill="#333333" d="M69.427,23.747V0.446h7.689v2.904h-4.588v6.831h4.093v2.905h-4.06v7.723h4.555v2.938H69.427z"/>
<path fill="#333333" d="M79.171,23.747V0.446h3.069v20.43h5.083v2.871H79.171z"/>
<path fill="#333333" d="M96.19,23.747l-0.595-4.291h-3.499l-0.527,4.291h-3.004l3.301-23.301h3.729l3.598,23.301H96.19z
	 M93.714,4.505l-1.287,12.113H95.2L93.714,4.505z"/>
<path fill="#333333" d="M110.066,20.314c-0.033,0.264,0,1.849-0.99,2.706c-0.924,0.76-2.244,0.727-3.333,0.727h-4.688V0.446h5.446
	c0.957,0,1.98,0,2.739,0.692c0.825,0.792,0.825,1.882,0.858,3.961c0,0.396,0.032,0.792,0.032,1.188c0,0.727-0.032,1.453-0.065,2.179
	c0,0.132,0.033,1.155-0.297,1.815c-0.231,0.495-0.759,0.825-1.255,0.957c-0.33,0.099-0.957,0.198-0.957,0.198
	c0.826,0.065,1.783,0.297,2.212,1.056c0.362,0.66,0.297,1.552,0.33,3.169c0,0.594,0.032,1.188,0.032,1.815
	C110.132,18.434,110.132,19.357,110.066,20.314z M106.997,4.505c-0.033-0.627-0.133-0.924-0.33-1.089
	c-0.23-0.198-0.561-0.198-1.122-0.198h-1.519v6.997h1.188c0.957,0,1.649-0.033,1.782-1.188c0.066-0.463,0.1-1.222,0.1-2.344
	C107.097,5.957,107.063,5.231,106.997,4.505z M107.097,14.473c-0.033-0.429-0.066-1.122-0.396-1.452
	c-0.264-0.231-0.66-0.264-0.957-0.264h-1.717v8.119h1.584c0.693,0,1.32,0.065,1.453-0.792c0.033-0.363,0.099-1.915,0.099-3.268
	C107.162,16.024,107.129,15.265,107.097,14.473z"/>
<path fill="#333333" d="M20.065,9.725l0.69,0.397c2.234,1.291,2.234,3.511,0,4.802l-3.629,2.095L20.065,9.725z M0.1,1.982
	c0.422-1.877,2.123-2.561,4.059-1.443L16.889,7.89l-3.32,8.569c-0.033,0.007-2.158-5.869-2.417-6.295
	c-1.057-1.739-3.318-0.975-4.171,0.63c-0.567,1.068-2.369,4.052-2.433,4.035C4.521,14.821,0.739,3.844,0.1,1.982z M4.158,24.506
	C1.923,25.796,0,24.685,0,22.104v-7.942l1.167,3.059c1.153,3.189,4.262,2.356,5.256,0c0.274-0.649,2.014-3.892,2.104-4.104
	c0.028-0.051,1.817,6.03,2.482,7.284L4.158,24.506z"/>
</svg>
