<?xml version="1.0" encoding="utf-8"?>
<!-- Generator: Adobe Illustrator 14.0.0, SVG Export Plug-In . SVG Version: 6.00 Build 43363)  -->
<!DOCTYPE svg PUBLIC "-//W3C//DTD SVG 1.1//EN" "http://www.w3.org/Graphics/SVG/1.1/DTD/svg11.dtd">
<svg version="1.1" id="Layer_1" xmlns="http://www.w3.org/2000/svg" xmlns:xlink="http://www.w3.org/1999/xlink" x="0px" y="0px"
	 width="34px" height="34px" viewBox="11.346 11.346 34 34" enable-background="new 11.346 11.346 34 34" xml:space="preserve">
<g>
	<defs>
		<polygon id="SVGID_1_" points="21.088,29.778 22.319,29.778 22.319,35.891 23.508,35.891 23.508,29.778 24.738,29.778 
			24.738,28.737 21.088,28.737 		"/>
	</defs>
	<clipPath id="SVGID_2_">
		<use xlink:href="#SVGID_1_"  overflow="visible"/>
	</clipPath>
	<linearGradient id="SVGID_3_" gradientUnits="userSpaceOnUse" x1="28.3459" y1="11.3464" x2="28.3459" y2="45.3469">
		<stop  offset="0" style="stop-color:#FFFFFF"/>
		<stop  offset="1" style="stop-color:#CCCCCC"/>
	</linearGradient>
	<rect x="11.346" y="11.346" clip-path="url(#SVGID_2_)" fill="url(#SVGID_3_)" width="34" height="34"/>
</g>
<g>
	<defs>
		<path id="SVGID_4_" d="M28.391,24.697c0.162,0,0.29-0.042,0.385-0.13c0.094-0.091,0.142-0.213,0.142-0.368V21.03
			c0-0.127-0.048-0.23-0.146-0.307c-0.097-0.08-0.223-0.119-0.382-0.119c-0.144,0-0.261,0.039-0.353,0.119
			c-0.09,0.077-0.135,0.181-0.135,0.307v3.168c0,0.159,0.042,0.282,0.127,0.368C28.115,24.654,28.236,24.697,28.391,24.697z"/>
	</defs>
	<clipPath id="SVGID_5_">
		<use xlink:href="#SVGID_4_"  overflow="visible"/>
	</clipPath>
	<linearGradient id="SVGID_6_" gradientUnits="userSpaceOnUse" x1="28.3459" y1="11.3464" x2="28.3459" y2="45.3469">
		<stop  offset="0" style="stop-color:#FFFFFF"/>
		<stop  offset="1" style="stop-color:#CCCCCC"/>
	</linearGradient>
	<rect x="11.346" y="11.346" clip-path="url(#SVGID_5_)" fill="url(#SVGID_6_)" width="34" height="34"/>
</g>
<g>
	<defs>
		<path id="SVGID_7_" d="M31.014,30.549c-0.164,0-0.326,0.042-0.487,0.126c-0.157,0.083-0.31,0.207-0.451,0.368v-2.306H29.01v7.155
			h1.066v-0.404c0.138,0.163,0.289,0.282,0.45,0.359c0.16,0.076,0.345,0.115,0.554,0.115c0.311,0,0.553-0.1,0.715-0.299
			c0.166-0.201,0.25-0.487,0.25-0.86v-2.93c0-0.433-0.088-0.763-0.266-0.986C31.603,30.662,31.348,30.549,31.014,30.549z
			 M30.956,34.657c0,0.17-0.03,0.29-0.092,0.364c-0.061,0.075-0.154,0.111-0.284,0.111c-0.089,0-0.173-0.021-0.255-0.057
			c-0.08-0.036-0.165-0.101-0.249-0.187V31.6c0.072-0.073,0.145-0.128,0.217-0.161c0.073-0.037,0.148-0.052,0.224-0.052
			c0.142,0,0.252,0.045,0.329,0.135c0.074,0.094,0.11,0.229,0.11,0.408V34.657z"/>
	</defs>
	<clipPath id="SVGID_8_">
		<use xlink:href="#SVGID_7_"  overflow="visible"/>
	</clipPath>
	<linearGradient id="SVGID_9_" gradientUnits="userSpaceOnUse" x1="28.3459" y1="11.3464" x2="28.3459" y2="45.3469">
		<stop  offset="0" style="stop-color:#FFFFFF"/>
		<stop  offset="1" style="stop-color:#CCCCCC"/>
	</linearGradient>
	<rect x="11.346" y="11.346" clip-path="url(#SVGID_8_)" fill="url(#SVGID_9_)" width="34" height="34"/>
</g>
<g>
	<defs>
		<path id="SVGID_10_" d="M27.159,34.625c-0.099,0.113-0.208,0.206-0.327,0.281c-0.119,0.074-0.218,0.11-0.294,0.11
			c-0.1,0-0.171-0.026-0.217-0.083c-0.042-0.056-0.066-0.146-0.066-0.27v-4.051h-1.054v4.414c0,0.315,0.062,0.548,0.186,0.708
			c0.125,0.156,0.307,0.235,0.551,0.235c0.198,0,0.403-0.055,0.614-0.168c0.211-0.114,0.413-0.275,0.608-0.489v0.578h1.056v-5.277
			H27.16L27.159,34.625L27.159,34.625z"/>
	</defs>
	<clipPath id="SVGID_11_">
		<use xlink:href="#SVGID_10_"  overflow="visible"/>
	</clipPath>
	<linearGradient id="SVGID_12_" gradientUnits="userSpaceOnUse" x1="28.3459" y1="11.3464" x2="28.3459" y2="45.3469">
		<stop  offset="0" style="stop-color:#FFFFFF"/>
		<stop  offset="1" style="stop-color:#CCCCCC"/>
	</linearGradient>
	<rect x="11.346" y="11.346" clip-path="url(#SVGID_11_)" fill="url(#SVGID_12_)" width="34" height="34"/>
</g>
<g>
	<defs>
		<path id="SVGID_13_" d="M28.346,11.346c-9.389,0-17,7.611-17,17c0,9.39,7.611,17,17,17c9.389,0,17-7.61,17-17
			C45.346,18.958,37.734,11.346,28.346,11.346z M31.093,19.742h1.187v4.459c0,0.139,0.026,0.237,0.077,0.298
			c0.048,0.062,0.129,0.095,0.241,0.095c0.086,0,0.196-0.042,0.331-0.123c0.132-0.084,0.255-0.187,0.365-0.315v-4.414h1.189v5.815
			h-1.189v-0.642c-0.217,0.236-0.445,0.417-0.684,0.541c-0.235,0.123-0.465,0.186-0.688,0.186c-0.275,0-0.481-0.087-0.622-0.261
			c-0.137-0.171-0.207-0.43-0.207-0.779V19.742z M26.681,21.072c0-0.448,0.158-0.808,0.478-1.077
			c0.321-0.265,0.751-0.399,1.29-0.399c0.493,0,0.894,0.142,1.209,0.421c0.313,0.281,0.47,0.646,0.47,1.09v3.003
			c0,0.499-0.154,0.888-0.46,1.169c-0.31,0.282-0.733,0.423-1.273,0.423c-0.519,0-0.935-0.146-1.248-0.436
			c-0.311-0.294-0.468-0.688-0.468-1.181L26.681,21.072L26.681,21.072z M23.445,17.676l0.868,3.15h0.085l0.827-3.15h1.359
			l-1.556,4.613v3.271H23.69v-3.125l-1.593-4.758H23.445z M39.005,34.267c0,2.104-1.706,3.811-3.81,3.811H21.957
			c-2.105,0-3.811-1.707-3.811-3.811v-3.064c0-2.104,1.706-3.811,3.811-3.811h13.238c2.104,0,3.81,1.706,3.81,3.811V34.267z"/>
	</defs>
	<clipPath id="SVGID_14_">
		<use xlink:href="#SVGID_13_"  overflow="visible"/>
	</clipPath>
	<linearGradient id="SVGID_15_" gradientUnits="userSpaceOnUse" x1="28.3459" y1="11.3464" x2="28.3459" y2="45.3469">
		<stop  offset="0" style="stop-color:#FFFFFF"/>
		<stop  offset="1" style="stop-color:#CCCCCC"/>
	</linearGradient>
	<rect x="11.346" y="11.346" clip-path="url(#SVGID_14_)" fill="url(#SVGID_15_)" width="34" height="34"/>
</g>
<g>
	<defs>
		<path id="SVGID_16_" d="M34.2,30.482c-0.473,0-0.855,0.143-1.155,0.433c-0.298,0.287-0.449,0.662-0.449,1.117v2.373
			c0,0.509,0.138,0.908,0.409,1.197s0.644,0.436,1.116,0.436c0.526,0,0.921-0.136,1.184-0.409c0.268-0.274,0.397-0.682,0.397-1.224
			v-0.271h-1.084v0.24c0,0.312-0.037,0.512-0.105,0.604c-0.068,0.09-0.191,0.135-0.367,0.135c-0.168,0-0.287-0.052-0.356-0.158
			c-0.07-0.109-0.103-0.301-0.103-0.58v-0.993h2.017v-1.349c0-0.499-0.128-0.882-0.388-1.15
			C35.055,30.616,34.683,30.482,34.2,30.482z M34.618,32.558h-0.933v-0.533c0-0.221,0.033-0.381,0.107-0.474
			c0.074-0.099,0.194-0.146,0.363-0.146c0.158,0,0.278,0.047,0.351,0.146c0.072,0.093,0.11,0.252,0.11,0.474L34.618,32.558
			L34.618,32.558z"/>
	</defs>
	<clipPath id="SVGID_17_">
		<use xlink:href="#SVGID_16_"  overflow="visible"/>
	</clipPath>
	<linearGradient id="SVGID_18_" gradientUnits="userSpaceOnUse" x1="28.3459" y1="11.3464" x2="28.3459" y2="45.3469">
		<stop  offset="0" style="stop-color:#FFFFFF"/>
		<stop  offset="1" style="stop-color:#CCCCCC"/>
	</linearGradient>
	<rect x="11.346" y="11.346" clip-path="url(#SVGID_17_)" fill="url(#SVGID_18_)" width="34" height="34"/>
</g>
</svg>
